:SAMPLES-PER-SECOND 30
:FULLY-SPECIFIED
:DEGREES
290
root  6.76756 39.6946 -3.75225 -177.61 31.8344 -179.992
RightUpLeg  -17.5891 27.0269 -9.14744
RightLeg  21.7354 17.2877 7.26773
RightFoot  -8.78668 -0.101291 1.72963
RightToes  0.000482159 0.542163 -0.142577
Spine  8.52038 -1.57127 5.42134
Spine1  5.5428 -0.448805 -4.03513
HEad  15.0323 -18.1546 -0.389474
LeftShoulder1  7.79271 -11.9163 -43.9899
LeftArm  -13.2352 30.6316 -29.5467
LeftForeArm  20.4231 -20.7877 -3.66486
LeftHand  -0.25398 0.0180481 5.50724
RightShoulder  5.01473 8.45311 35.9609
RightArm  -10.0791 -1.5443 30.0853
RightForeArm  -6.25486 34.2978 8.02384
RightHand  -1.20165 1.05814 -21.5629
LeftUpLeg  -1.12921 8.2658 13.2252
LeftLeg  12.0315 -5.51498 -1.19354
LeftFoot  -11.1986 0.0787116 -12.6561
LeftToes  1.06247e-005 4.65855e-005 -8.18504e-006
291
root  5.76944 39.9079 -3.79136 -176.224 35.9816 179.855
RightUpLeg  -18.9527 19.7569 -9.59453
RightLeg  18.6159 15.0644 5.31952
RightFoot  -5.44937 -0.236566 3.8786
RightToes  0.000482159 0.542163 -0.142577
Spine  8.41248 -1.3961 3.06932
Spine1  5.13321 -0.848753 -2.15043
HEad  14.6633 -17.2478 0.254418
LeftShoulder1  7.75044 -12.0606 -43.3113
LeftArm  -13.6493 29.128 -29.3257
LeftForeArm  22.2415 -23.3179 -3.86222
LeftHand  -0.25398 0.0180481 5.50724
RightShoulder  5.04021 8.56747 35.7774
RightArm  -12.6018 -1.28671 30.7935
RightForeArm  -6.88856 31.5954 7.3168
RightHand  -1.65235 2.78767 -23.4411
LeftUpLeg  -1.91305 8.75715 11.4484
LeftLeg  11.0526 -1.13079 -1.26775
LeftFoot  -10.3378 0.16136 -11.2551
LeftToes  1.06247e-005 4.65855e-005 -8.18504e-006
292
root  4.90079 40.1352 -3.89902 -174.724 40.6524 -179.796
RightUpLeg  -19.3897 8.99275 -7.07618
RightLeg  15.9847 11.3837 3.06619
RightFoot  -2.85336 -0.386324 4.98361
RightToes  0.000482159 0.542163 -0.142577
Spine  7.75673 -0.955413 2.6824
Spine1  5.26126 -0.427423 -2.04625
HEad  14.3966 -16.3549 0.964005
LeftShoulder1  7.69745 -12.2896 -42.3343
LeftArm  -14.991 28.8165 -28.2235
LeftForeArm  24.5783 -28.0222 -4.71472
LeftHand  -0.25398 0.0180481 5.50724
RightShoulder  5.01769 8.55938 35.6226
RightArm  -14.3084 -2.40823 32.1098
RightForeArm  -8.60032 29.3041 6.81481
RightHand  -1.98573 3.91832 -24.7442
LeftUpLeg  -1.86485 8.90034 10.5411
LeftLeg  9.37143 3.46673 -1.85234
LeftFoot  -9.55837 0.229364 -11.032
LeftToes  1.06247e-005 4.65855e-005 -8.18504e-006
293
root  4.16577 40.3204 -4.0562 -173.691 46.1738 -179.115
RightUpLeg  -19.139 -0.671361 -3.55367
RightLeg  14.8648 7.1199 1.72385
RightFoot  -2.65181 -0.367076 4.57648
RightToes  0.000482159 0.542163 -0.142577
Spine  7.27451 -0.197358 3.66325
Spine1  5.82958 0.739398 -3.46567
HEad  13.7977 -15.3289 1.58303
LeftShoulder1  7.67659 -12.4985 -41.6198
LeftArm  -16.5499 29.0767 -26.1652
LeftForeArm  26.0079 -33.3993 -5.91429
LeftHand  -0.25398 0.0180481 5.50724
RightShoulder  5.11104 8.68148 35.9626
RightArm  -13.979 -4.16597 32.9396
RightForeArm  -11.4487 27.1828 6.42259
RightHand  -2.09776 4.3663 -24.9369
LeftUpLeg  -0.515645 8.75233 9.89667
LeftLeg  7.17715 9.08868 -2.60924
LeftFoot  -9.29259 0.240393 -10.33
LeftToes  1.06247e-005 4.65855e-005 -8.18504e-006
294
root  3.56444 40.4672 -4.24872 -172.814 52.1845 -178.381
RightUpLeg  -18.7739 -7.96301 -0.564369
RightLeg  16.0785 2.75125 0.875537
RightFoot  -3.61398 -0.227489 2.99611
RightToes  0.000482159 0.542163 -0.142577
Spine  6.76173 0.681168 4.84485
Spine1  6.36776 2.07164 -5.03967
HEad  13.1881 -13.6251 1.70403
LeftShoulder1  7.63255 -12.4436 -41.517
LeftArm  -18.4112 29.4834 -23.5298
LeftForeArm  25.9898 -37.9245 -7.12064
LeftHand  -0.25398 0.0180481 5.50724
RightShoulder  5.31198 8.97376 36.576
RightArm  -10.8643 -5.68866 33.0983
RightForeArm  -13.8372 24.0832 5.8924
RightHand  -1.9513 4.03898 -24.0154
LeftUpLeg  1.3868 8.60764 8.9639
LeftLeg  4.33542 15.2267 -3.45441
LeftFoot  -8.8564 0.254077 -9.26606
LeftToes  1.06247e-005 4.65855e-005 -8.18504e-006
295
root  3.10694 40.5393 -4.46199 -171.856 57.7241 -177.868
RightUpLeg  -18.4375 -14.2759 1.72446
RightLeg  19.0279 -1.46199 -0.792845
RightFoot  -4.37511 -0.100548 1.16947
RightToes  0.000482159 0.542163 -0.142577
Spine  5.86398 1.24605 5.43208
Spine1  6.54277 2.85965 -5.91799
HEad  12.8371 -11.0371 1.24107
LeftShoulder1  7.53032 -12.1008 -41.8862
LeftArm  -20.871 29.9347 -20.9108
LeftForeArm  24.7012 -40.7913 -8.05258
LeftHand  -0.25398 0.0180481 5.50724
RightShoulder  5.4599 9.19323 36.9939
RightArm  -6.98046 -6.65672 33.1682
RightForeArm  -12.6567 19.622 5.79869
RightHand  -1.53926 2.661 -22.1786
LeftUpLeg  2.58983 8.38207 7.80917
LeftLeg  2.07621 20.8414 -4.44666
LeftFoot  -8.60334 0.255514 -8.51204
LeftToes  1.06247e-005 4.65855e-005 -8.18504e-006
296
root  2.7908 40.514 -4.6709 -171.548 62.1417 -178.115
RightUpLeg  -16.9815 -17.865 2.18898
RightLeg  20.8656 -5.17478 -2.40091
RightFoot  -5.43193 -0.0546577 0.359074
RightToes  0.000482159 0.542163 -0.142577
Spine  4.73423 1.31763 5.21829
Spine1  6.61495 2.9428 -6.18551
HEad  12.496 -8.17696 0.569065
LeftShoulder1  7.42789 -11.7527 -42.2833
LeftArm  -23.6123 30.004 -18.74
LeftForeArm  22.7181 -41.3813 -8.37167
LeftHand  -0.25398 0.0180481 5.50724
RightShoulder  5.48706 9.22241 37.1046
RightArm  -5.93428 -7.74188 33.5201
RightForeArm  -6.37615 14.9652 6.73972
RightHand  -1.03448 0.60414 -20.0062
LeftUpLeg  2.70704 8.18991 6.48225
LeftLeg  1.7623 25.1282 -5.02266
LeftFoot  -9.13905 0.206787 -7.88216
LeftToes  1.06247e-005 4.65855e-005 -8.18504e-006
297
root  2.5974 40.4807 -4.86835 -172.18 65.7323 -179.059
RightUpLeg  -14.0602 -19.0179 1.33935
RightLeg  19.2524 -5.42224 -2.11914
RightFoot  -7.19544 -0.0496836 -0.0165719
RightToes  0.000482159 0.542163 -0.142577
Spine  3.58806 1.20118 4.9519
Spine1  7.02588 2.83934 -6.34112
HEad  12.0431 -5.80053 0.0494967
LeftShoulder1  7.38743 -11.6062 -42.4722
LeftArm  -25.9101 28.9297 -17.0513
LeftForeArm  21.0861 -39.1464 -7.79638
LeftHand  -0.25398 0.0180481 5.50724
RightShoulder  5.50669 9.22965 37.2297
RightArm  -5.57776 -9.94388 33.9791
RightForeArm  -0.615713 11.9605 7.40195
RightHand  -0.727823 -0.897479 -18.6952
LeftUpLeg  2.70863 7.78747 5.00427
LeftLeg  1.9901 28.8688 -5.1776
LeftFoot  -9.57302 0.164054 -6.93976
LeftToes  1.06247e-005 4.65855e-005 -8.18504e-006
298
root  2.50339 40.5043 -5.06604 -172.472 69.2702 -179.476
RightUpLeg  -11.2546 -15.7614 -0.123343
RightLeg  15.3923 -5.50598 -0.0966112
RightFoot  -8.16514 -0.0196581 -1.22951
RightToes  0.000482159 0.542163 -0.142577
Spine  2.40663 1.25286 5.55982
Spine1  7.68193 3.05551 -6.91441
HEad  11.8118 -3.86884 -0.343862
LeftShoulder1  7.36769 -11.5192 -42.6128
LeftArm  -27.5926 26.5672 -15.8396
LeftForeArm  20.7561 -34.576 -6.52975
LeftHand  -0.25398 0.0180481 5.50724
RightShoulder  5.60347 9.34506 37.5822
RightArm  -3.81075 -13.332 34.0582
RightForeArm  1.90327 10.9487 7.81782
RightHand  -0.683132 -1.19485 -18.7064
LeftUpLeg  3.14086 7.2158 3.73346
LeftLeg  1.30656 33.002 -5.46508
LeftFoot  -9.25817 0.162179 -5.88278
LeftToes  1.06247e-005 4.65855e-005 -8.18504e-006
299
root  2.45043 40.574 -5.26792 -170.291 72.9556 -177.339
RightUpLeg  -9.93598 -9.86656 -0.949794
RightLeg  11.8075 -7.245 1.92302
RightFoot  -6.8972 0.0631464 -2.77958
RightToes  0.000482159 0.542163 -0.142577
Spine  1.46269 1.38162 7.11664
Spine1  8.14015 3.35579 -7.61253
HEad  11.9351 -1.70784 -0.81776
LeftShoulder1  7.28809 -11.2697 -42.8796
LeftArm  -29.0187 23.9093 -15.4424
LeftForeArm  21.363 -29.5393 -5.23562
LeftHand  -0.25398 0.0180481 5.50724
RightShoulder  5.70447 9.48649 37.8748
RightArm  -0.512758 -16.9291 33.6777
RightForeArm  3.10076 11.0805 8.27007
RightHand  -0.670389 -1.25396 -18.6029
LeftUpLeg  3.61454 7.00538 3.28744
LeftLeg  0.345148 37.0033 -5.8904
LeftFoot  -8.71761 0.166522 -4.98575
LeftToes  1.06247e-005 4.65855e-005 -8.18504e-006
300
root  2.39667 40.6681 -5.44076 -165.149 76.0898 -172.041
RightUpLeg  -9.34428 -7.21315 -0.562983
RightLeg  9.28264 -7.15115 3.11534
RightFoot  -4.33263 0.188528 -3.58426
RightToes  0.000482159 0.542163 -0.142577
Spine  1.11862 1.17264 8.21871
Spine1  8.34154 3.0041 -7.20696
HEad  12.0481 1.02055 -1.28928
LeftShoulder1  7.13627 -10.9114 -43.0355
LeftArm  -29.4591 22.116 -16.1579
LeftForeArm  21.1044 -25.8506 -4.41757
LeftHand  -0.25398 0.0180481 5.50724
RightShoulder  5.72183 9.57997 37.7002
RightArm  3.60077 -19.953 33.1737
RightForeArm  4.40009 11.879 8.53752
RightHand  -0.471344 -2.27402 -17.0125
LeftUpLeg  3.92453 7.28183 3.72418
LeftLeg  0.115465 39.4016 -5.97846
LeftFoot  -8.32891 0.161981 -4.2568
LeftToes  1.06247e-005 4.65855e-005 -8.18504e-006
301
root  2.35065 40.7547 -5.5416 -160.113 78.2071 -166.64
RightUpLeg  -8.20282 -5.89375 -0.263497
RightLeg  6.98304 -6.63486 3.94363
RightFoot  -2.33875 0.261364 -3.5224
RightToes  0.000482159 0.542163 -0.142577
Spine  1.19856 0.513053 7.38633
Spine1  8.55922 1.78595 -5.10014
HEad  12.0168 3.94977 -1.38437
LeftShoulder1  6.95621 -10.6414 -42.7307
LeftArm  -26.803 21.2836 -17.507
LeftForeArm  19.0172 -24.0525 -4.14432
LeftHand  -0.25398 0.0180481 5.50724
RightShoulder  5.67807 9.66335 37.1111
RightArm  7.19023 -22.5606 32.8588
RightForeArm  4.99045 13.1685 8.39526
RightHand  -0.220172 -3.80028 -14.829
LeftUpLeg  4.2106 7.53839 4.27215
LeftLeg  0.724316 39.5603 -5.51719
LeftFoot  -7.92364 0.16461 -3.92059
LeftToes  1.06247e-005 4.65855e-005 -8.18504e-006
302
root  2.33265 40.8177 -5.58345 -157.839 79.9247 -164.048
RightUpLeg  -6.95911 -5.61677 -0.320045
RightLeg  4.80232 -4.91321 4.27603
RightFoot  -1.26178 0.306477 -3.56462
RightToes  0.000482159 0.542163 -0.142577
Spine  1.25554 -0.221732 5.25487
Spine1  8.74145 0.412762 -2.62453
HEad  12.267 6.56278 -0.974347
LeftShoulder1  6.79815 -10.4866 -42.1874
LeftArm  -20.6782 20.71 -18.254
LeftForeArm  17.3935 -24.1338 -4.24897
LeftHand  -0.25398 0.0180481 5.50724
RightShoulder  5.60958 9.68826 36.5273
RightArm  8.59414 -25.2758 32.8303
RightForeArm  4.37522 14.4095 7.95451
RightHand  -0.14985 -4.32506 -14.0546
LeftUpLeg  4.75759 7.38779 4.28009
LeftLeg  0.959369 38.4004 -5.24667
LeftFoot  -7.30262 0.18363 -3.96299
LeftToes  1.06247e-005 4.65855e-005 -8.18504e-006
